<svg width="23" height="23" viewBox="0 0 23 23" fill="none" xmlns="http://www.w3.org/2000/svg">
<path d="M11.4995 18.98C7.36353 18.98 4.01953 15.636 4.01953 11.5C4.01953 7.36399 7.36353 4.01999 11.4995 4.01999C15.6355 4.01999 18.9795 7.36399 18.9795 11.5C18.9795 15.636 15.6355 18.98 11.4995 18.98ZM11.4995 4.89999C7.84753 4.89999 4.89953 7.84799 4.89953 11.5C4.89953 15.152 7.84753 18.1 11.4995 18.1C15.1515 18.1 18.0995 15.152 18.0995 11.5C18.0995 7.84799 15.1515 4.89999 11.4995 4.89999Z" fill="#71B3FE"/>
<path d="M7.54004 11.06H15.46V11.94H7.54004V11.06Z" fill="#71B3FE"/>
<path d="M11.0596 7.54001H11.9396V15.46H11.0596V7.54001Z" fill="#71B3FE"/>
</svg>
