<svg width="18" height="20" viewBox="0 0 18 20" fill="none" xmlns="http://www.w3.org/2000/svg">
<path d="M9 0C6.61392 0.00245748 4.32637 0.831051 2.63915 2.30402C0.951939 3.77699 0.0028245 5.77405 9.57508e-06 7.85714C-0.00284824 9.55945 0.634084 11.2156 1.8131 12.5714C1.8131 12.5714 2.05855 12.8536 2.09864 12.8943L9 20L15.9046 12.8907C15.9406 12.8529 16.1869 12.5714 16.1869 12.5714L16.1877 12.5693C17.3661 11.214 18.0028 9.55866 18 7.85714C17.9972 5.77405 17.0481 3.77699 15.3608 2.30402C13.6736 0.831051 11.3861 0.00245748 9 0ZM9 10.7143C8.35272 10.7143 7.71997 10.5467 7.18177 10.2328C6.64358 9.91882 6.2241 9.4726 5.9764 8.95052C5.72869 8.42845 5.66388 7.85397 5.79016 7.29974C5.91644 6.74551 6.22814 6.23642 6.68583 5.83684C7.14353 5.43726 7.72668 5.16514 8.36152 5.0549C8.99637 4.94466 9.6544 5.00124 10.2524 5.21749C10.8504 5.43374 11.3616 5.79994 11.7212 6.2698C12.0808 6.73965 12.2727 7.29205 12.2727 7.85714C12.2716 8.61461 11.9265 9.34079 11.313 9.8764C10.6994 10.412 9.86765 10.7133 9 10.7143Z" fill="white"/>
</svg>
