<svg width="21" height="24" viewBox="0 0 21 24" fill="none" xmlns="http://www.w3.org/2000/svg">
<path d="M17.0002 10.9854H19.0002C19.0002 5.86178 15.1272 1.99756 9.99023 1.99756V3.99509C14.0522 3.99509 17.0002 6.93445 17.0002 10.9854Z" fill="white"/>
<path d="M10.0003 7.99014C12.1033 7.99014 13.0003 8.88603 13.0003 10.9864H15.0003C15.0003 7.76542 13.2253 5.99261 10.0003 5.99261V7.99014ZM13.4223 13.4264C13.2301 13.252 12.9776 13.159 12.7181 13.167C12.4585 13.175 12.2123 13.2834 12.0313 13.4694L9.63828 15.9273C9.06228 15.8175 7.90428 15.4569 6.71228 14.2694C5.52028 13.0778 5.15928 11.9183 5.05228 11.347L7.51128 8.95595C7.69769 8.7753 7.80642 8.5293 7.81444 8.27C7.82247 8.01071 7.72917 7.75847 7.55428 7.56666L3.85928 3.50868C3.68432 3.31628 3.44116 3.19957 3.18143 3.18335C2.92171 3.16712 2.66588 3.25266 2.46828 3.42179L0.298282 5.28049C0.125393 5.45379 0.0222015 5.68444 0.00828196 5.92869C-0.00671804 6.17838 -0.292718 12.0931 4.29928 16.6814C8.30528 20.6814 13.3233 20.9741 14.7053 20.9741C14.9073 20.9741 15.0313 20.9681 15.0643 20.9661C15.3088 20.9524 15.5396 20.8489 15.7123 20.6755L17.5723 18.5071C17.7417 18.3099 17.8276 18.0545 17.8115 17.7951C17.7954 17.5357 17.6788 17.2927 17.4863 17.1179L13.4223 13.4264Z" fill="white"/>
</svg>
