<svg width="15" height="15" viewBox="0 0 15 15" fill="none" xmlns="http://www.w3.org/2000/svg">
<g clip-path="url(#clip0_409_1561)">
<path d="M7.44776 0.548431C9.307 0.548431 11.0901 1.28701 12.4048 2.60169C13.7194 3.91637 14.458 5.69946 14.458 7.55869C14.458 9.29508 13.8217 10.8913 12.7756 12.1208L13.0668 12.412H13.9188L19.3113 17.8045L17.6935 19.4222L12.301 14.0297V13.1777L12.0098 12.8865C10.7378 13.9723 9.12021 14.5689 7.44776 14.569C5.58853 14.569 3.80544 13.8304 2.49076 12.5157C1.17608 11.201 0.4375 9.41793 0.4375 7.55869C0.4375 5.69946 1.17608 3.91637 2.49076 2.60169C3.80544 1.28701 5.58853 0.548431 7.44776 0.548431ZM7.44776 2.70544C4.75151 2.70544 2.5945 4.86244 2.5945 7.55869C2.5945 10.255 4.75151 12.412 7.44776 12.412C10.144 12.412 12.301 10.255 12.301 7.55869C12.301 4.86244 10.144 2.70544 7.44776 2.70544Z" fill="black"/>
</g>
<defs>
<clipPath id="clip0_409_1561">
<rect width="14.1553" height="14.1553" fill="white" transform="translate(0.4375 0.54837)"/>
</clipPath>
</defs>
</svg>
